      <svg xmlns="http://www.w3.org/2000/svg" viewBox="0 0 150 150" >
        <path data-name="Caminho 1040" fill="#FFF"
          d="M74.26 72.41a27.32 27.32 0 0 0 20.38-8.79 29.69 29.69 0 0 0 8.43-21.22 29.7 29.7 0 0 0-8.43-21.23A28 28 0 0 0 55 20c-.4.37-.78.76-1.16 1.15a29.7 29.7 0 0 0-8.39 21.25 29.69 29.69 0 0 0 8.43 21.22 27.36 27.36 0 0 0 20.38 8.79z">
        </path>
        <path data-name="Caminho 1041" fill="#FFF"
          d="M124.68 108.21a74.49 74.49 0 0 0-1-7.87 63.64 63.64 0 0 0-1.86-7.92 39.56 39.56 0 0 0-3.09-7.42 27.91 27.91 0 0 0-4.71-6.4 20.78 20.78 0 0 0-6.78-4.43 22.6 22.6 0 0 0-8.64-1.63 8.6 8.6 0 0 0-4.68 2.07L89 77.93a27.81 27.81 0 0 1-6.32 2.9 23.67 23.67 0 0 1-15.46 0 27.94 27.94 0 0 1-6.22-2.9c-1.81-1.21-3.46-2.31-4.88-3.28a8.55 8.55 0 0 0-4.68-2.06 22.5 22.5 0 0 0-8.65 1.63A20.68 20.68 0 0 0 36 78.65 28.05 28.05 0 0 0 31.27 85a40.63 40.63 0 0 0-3.12 7.39 63.23 63.23 0 0 0-1.86 7.92 76.86 76.86 0 0 0-1 7.87c-.16 2.38-.24 4.86-.24 7.36A21.15 21.15 0 0 0 31 131.22 20.78 20.78 0 0 0 46.19 137h57.62a20.78 20.78 0 0 0 15.19-5.78 21.16 21.16 0 0 0 5.9-15.66c0-2.51-.08-5-.24-7.36z">
        </path>
      </svg>